<svg width="515" height="494" viewBox="0 0 515 494" fill="none" xmlns="http://www.w3.org/2000/svg">
<g clip-path="url(#clip0)">
<path d="M427.006 280.366C361.994 378.799 331.417 494 213.503 494C95.5885 494 0 398.353 0 280.366C0 162.379 106.546 116.401 213.503 66.7315C560.905 -94.5987 572.473 60.1152 427.006 280.366Z" fill="#333533"/>
<path d="M404.084 96.8763C426.148 96.8763 444.034 78.9791 444.034 56.9017C444.034 34.8244 426.148 16.9272 404.084 16.9272C382.02 16.9272 364.134 34.8244 364.134 56.9017C364.134 78.9791 382.02 96.8763 404.084 96.8763Z" fill="#E6E6E6"/>
<path d="M400.154 33.9656C402.686 33.9656 404.739 31.9118 404.739 29.3784C404.739 26.8449 402.686 24.7911 400.154 24.7911C397.623 24.7911 395.57 26.8449 395.57 29.3784C395.57 31.9118 397.623 33.9656 400.154 33.9656Z" fill="#CBCBCB"/>
<path d="M408.013 79.8379C410.545 79.8379 412.598 77.7842 412.598 75.2507C412.598 72.7172 410.545 70.6635 408.013 70.6635C405.481 70.6635 403.429 72.7172 403.429 75.2507C403.429 77.7842 405.481 79.8379 408.013 79.8379Z" fill="#CBCBCB"/>
<path d="M425.696 52.9698C427.505 52.9698 428.971 51.5028 428.971 49.6932C428.971 47.8836 427.505 46.4166 425.696 46.4166C423.888 46.4166 422.422 47.8836 422.422 49.6932C422.422 51.5028 423.888 52.9698 425.696 52.9698Z" fill="#CBCBCB"/>
<path d="M388.366 70.6635C394.153 70.6635 398.845 65.9691 398.845 60.1783C398.845 54.3876 394.153 49.6932 388.366 49.6932C382.579 49.6932 377.887 54.3876 377.887 60.1783C377.887 65.9691 382.579 70.6635 388.366 70.6635Z" fill="#CBCBCB"/>
<path d="M266.551 125.055C270.168 125.055 273.1 122.121 273.1 118.502C273.1 114.883 270.168 111.949 266.551 111.949C262.934 111.949 260.002 114.883 260.002 118.502C260.002 122.121 262.934 125.055 266.551 125.055Z" fill="#F5CB5C"/>
<path d="M442.069 142.093C445.686 142.093 448.618 139.159 448.618 135.54C448.618 131.921 445.686 128.987 442.069 128.987C438.452 128.987 435.52 131.921 435.52 135.54C435.52 139.159 438.452 142.093 442.069 142.093Z" fill="#F5CB5C"/>
<path d="M364.134 151.923C366.304 151.923 368.063 150.163 368.063 147.991C368.063 145.82 366.304 144.059 364.134 144.059C361.964 144.059 360.204 145.82 360.204 147.991C360.204 150.163 361.964 151.923 364.134 151.923Z" fill="#E6E6E6"/>
<path d="M61.5622 275.779C63.7324 275.779 65.4917 274.018 65.4917 271.847C65.4917 269.675 63.7324 267.915 61.5622 267.915C59.392 267.915 57.6327 269.675 57.6327 271.847C57.6327 274.018 59.392 275.779 61.5622 275.779Z" fill="#E6E6E6"/>
<path d="M294.058 381.285C296.228 381.285 297.987 379.525 297.987 377.353C297.987 375.182 296.228 373.421 294.058 373.421C291.888 373.421 290.128 375.182 290.128 377.353C290.128 379.525 291.888 381.285 294.058 381.285Z" fill="#E6E6E6"/>
<path d="M355.621 264.661L353.66 266.611L351.712 264.648L350.404 265.948L352.352 267.91L350.391 269.859L351.689 271.168L353.651 269.219L355.599 271.181L356.906 269.882L354.958 267.919L356.92 265.97L355.621 264.661Z" fill="#F5CB5C"/>
<path d="M95.619 328.883L93.6575 330.832L91.7099 328.869L90.402 330.169L92.3502 332.132L90.3887 334.08L91.6875 335.389L93.6484 333.44L95.5967 335.402L96.9045 334.103L94.9563 332.141L96.9178 330.191L95.619 328.883Z" fill="#E6E6E6"/>
<path d="M111.337 214.857L109.376 216.806L107.428 214.844L106.12 216.143L108.068 218.106L106.107 220.055L107.406 221.363L109.366 219.415L111.315 221.377L112.623 220.078L110.674 218.115L112.636 216.165L111.337 214.857Z" fill="#E6E6E6"/>
<path d="M453.859 93.6233L451.897 95.5721L449.949 93.61L448.642 94.909L450.59 96.8717L448.628 98.8211L449.927 100.129L451.889 98.1804L453.836 100.143L455.144 98.8435L453.196 96.8808L455.157 94.9313L453.859 93.6233Z" fill="#E6E6E6"/>
<path d="M299.298 148.015L297.337 149.964L295.389 148.001L294.081 149.301L296.029 151.263L294.068 153.212L295.366 154.521L297.328 152.572L299.276 154.534L300.583 153.235L298.636 151.272L300.597 149.323L299.298 148.015Z" fill="#E6E6E6"/>
<path opacity="0.8" d="M312.901 245.183L332.8 221.873L352.699 198.563L363.933 185.404C364.554 184.676 363.595 183.54 362.973 184.268L343.074 207.578L323.175 230.888L311.942 244.047C311.32 244.775 312.28 245.911 312.901 245.183V245.183Z" fill="url(#paint0_linear)"/>
<path opacity="0.8" d="M277.536 329.064L297.435 305.754L317.334 282.444L328.567 269.285C329.189 268.557 328.229 267.421 327.608 268.149L307.709 291.459L287.81 314.769L276.576 327.928C275.955 328.656 276.914 329.792 277.536 329.064V329.064Z" fill="url(#paint1_linear)"/>
<path d="M177.155 200.089H214.485V214.787C214.485 217.32 213.48 219.749 211.69 221.539C209.901 223.33 207.474 224.336 204.943 224.336H186.698C184.167 224.336 181.74 223.33 179.95 221.539C178.16 219.749 177.155 217.32 177.155 214.787V200.089H177.155Z" fill="#4F4F4F"/>
<path d="M226.929 395.374C218.428 403.993 209.914 404.05 201.387 395.652L194.838 337.706L190.253 395.773C181.732 402.674 173.791 403.603 166.676 396.03C159.889 345.86 156.2 299.251 162.092 263.655L149.649 213.196L177.81 200.089C183.481 214.126 174.537 221.305 194.763 221.065C214.81 220.827 213.313 213.281 212.521 200.089L238.427 210.059C240.633 210.908 242.432 212.567 243.458 214.698C244.484 216.829 244.659 219.272 243.947 221.527L230.858 263C235.897 283.936 230.724 342.173 226.929 395.374Z" fill="#E6E6E6"/>
<path d="M187.634 445.834C187.634 445.834 166.727 447.666 163.926 446.513C163.749 446.44 163.577 446.36 163.41 446.275C159.248 444.148 159.121 438.193 163.011 435.602L171.261 430.106L164.057 391.442L191.891 391.77L187.634 445.834Z" fill="#4F4F4F"/>
<path d="M203.352 446.162C203.352 446.162 224.259 447.994 227.059 446.84C227.236 446.767 227.408 446.688 227.576 446.603C231.738 444.476 231.865 438.521 227.975 435.93L219.725 430.434L229.876 391.77H200.732L203.352 446.162Z" fill="#4F4F4F"/>
<path d="M154.233 308.217L158.377 324.804C158.887 326.842 158.741 328.99 157.961 330.941C157.18 332.892 155.805 334.547 154.031 335.672V335.672C152.598 336.58 150.956 337.108 149.262 337.206C147.568 337.304 145.877 336.968 144.348 336.231C142.82 335.493 141.504 334.378 140.526 332.991C139.547 331.604 138.938 329.99 138.756 328.302L137.86 320.013L134.585 241.229C134.585 234.676 136.527 228.271 140.164 222.822C143.801 217.373 148.971 213.125 155.021 210.615L161.437 207.953L154.233 308.217Z" fill="#E6E6E6"/>
<path d="M258.365 240.575L258.345 241.04L255.699 304.632L255.188 316.919L255.09 319.357L254.193 327.647C254.046 329.01 253.62 330.327 252.943 331.518C252.265 332.709 251.35 333.748 250.254 334.57C249.159 335.392 247.906 335.98 246.573 336.297C245.241 336.614 243.857 336.654 242.509 336.413C241.161 336.173 239.876 335.658 238.735 334.899C237.595 334.141 236.622 333.156 235.877 332.006C235.133 330.856 234.633 329.565 234.408 328.213C234.184 326.861 234.239 325.477 234.572 324.148L238.717 307.562L238.626 306.33L238.076 298.623L231.513 207.298L237.931 209.958C243.977 212.474 249.143 216.723 252.779 222.172C256.416 227.62 258.359 234.023 258.365 240.575V240.575Z" fill="#E6E6E6"/>
<path d="M197.494 312.942C173.704 312.942 159.029 304.686 158.822 304.567L159.476 303.431C159.768 303.6 189.2 320.12 232.441 305.8L232.852 307.044C221.458 310.894 209.52 312.885 197.494 312.942V312.942Z" fill="#2F2E41"/>
<path d="M173.937 373.36C168.701 361.572 168.675 310.34 168.676 308.165L169.986 308.166C169.986 308.696 170.01 361.293 175.134 372.827L173.937 373.36Z" fill="#2F2E41"/>
<path d="M176.66 373.888C171.996 373.888 168.898 372.894 166.878 371.755C163.199 369.679 162.441 366.851 162.41 366.732L163.679 366.407L163.045 366.57L163.678 366.404C163.705 366.503 164.367 368.858 167.579 370.646C171.115 372.614 178.234 374.082 192.058 369.9L192.436 371.154C185.821 373.156 180.664 373.888 176.66 373.888Z" fill="#2F2E41"/>
<path d="M164.962 206.341L163.653 206.405L168.677 309.046L169.986 308.982L164.962 206.341Z" fill="#2F2E41"/>
<path d="M218.359 373.36L217.161 372.827C222.285 361.293 222.31 308.696 222.309 308.166L223.619 308.165C223.62 310.34 223.594 361.572 218.359 373.36Z" fill="#2F2E41"/>
<path d="M215.635 373.888C211.632 373.888 206.476 373.156 199.859 371.154L200.238 369.899C214.061 374.082 221.178 372.614 224.717 370.646C227.928 368.858 228.59 366.503 228.617 366.404L229.885 366.732C229.854 366.851 229.096 369.679 225.418 371.755C223.398 372.895 220.298 373.888 215.635 373.888Z" fill="#2F2E41"/>
<path d="M227.329 206.341L222.315 308.982L223.623 309.046L228.637 206.405L227.329 206.341Z" fill="#2F2E41"/>
<path d="M214.407 221.715L204.661 236.131H183.704L176.697 221.715H179.775L185.014 233.51H202.697L211.211 221.715H214.407Z" fill="#E2BD4B"/>
<path d="M238.063 228.923L238.233 229.264L238.063 229.578V228.923Z" fill="black"/>
<path d="M259.675 240.575L259.655 241.04L247.231 244.651L239.543 229.264L247.408 214.834C251.241 217.938 254.331 221.861 256.454 226.315C258.576 230.768 259.677 235.641 259.675 240.575V240.575Z" fill="#F5CB5C"/>
<path d="M133.78 240.575L133.8 241.04L146.223 244.651L153.912 229.264L146.046 214.834C142.214 217.938 139.123 221.861 137.001 226.315C134.878 230.768 133.778 235.641 133.78 240.575V240.575Z" fill="#F5CB5C"/>
<path d="M195.82 210.902C214.99 210.902 230.531 195.352 230.531 176.17C230.531 156.988 214.99 141.438 195.82 141.438C176.65 141.438 161.11 156.988 161.11 176.17C161.11 195.352 176.65 210.902 195.82 210.902Z" fill="#E6E6E6"/>
<path d="M195.82 206.315C209.927 206.315 221.362 194.872 221.362 180.757C221.362 166.642 209.927 155.2 195.82 155.2C181.714 155.2 170.278 166.642 170.278 180.757C170.278 194.872 181.714 206.315 195.82 206.315Z" fill="#4F4F4F"/>
<path d="M256.073 304.633L255.541 316.92L238.743 307.889L238.308 306.33L237.735 298.623L256.073 304.633Z" fill="#F5CB5C"/>
<path d="M136.596 304.633L137.155 316.92L154.81 307.889L155.269 306.33L155.871 298.623L136.596 304.633Z" fill="#F5CB5C"/>
<path d="M205.01 236.787H183.294L171.271 212.057L170.653 203.162L171.96 203.071L172.56 211.712L184.114 235.476H204.314L219.131 213.56L222.285 203.884L223.531 204.29L220.267 214.218L205.01 236.787Z" fill="#2F2E41"/>
<path d="M235.955 175.459L234.054 174.951C235.205 170.636 235.62 166.158 235.283 161.704C233.651 139.807 214.52 123.32 192.635 124.953C170.751 126.585 154.274 145.729 155.906 167.626C156.213 171.798 157.175 175.896 158.757 179.768L156.936 180.514C154.429 174.376 153.416 167.73 153.983 161.123C154.55 154.517 156.68 148.14 160.197 142.52C163.714 136.9 168.517 132.198 174.209 128.802C179.901 125.407 186.319 123.415 192.932 122.992C199.545 122.569 206.164 123.727 212.242 126.369C218.32 129.012 223.682 133.064 227.885 138.19C232.089 143.316 235.013 149.37 236.416 155.85C237.819 162.331 237.661 169.052 235.955 175.459Z" fill="#BDBDBD"/>
<path d="M159.71 162.821C154.96 163.175 150.544 165.404 147.436 169.016C144.327 172.628 142.779 177.327 143.134 182.081C143.488 186.834 145.715 191.252 149.324 194.363C152.934 197.474 157.631 199.022 162.382 198.668L166.831 198.336L164.16 162.489L159.71 162.821Z" fill="#BDBDBD"/>
<path d="M164.087 159.969C163.028 160.049 162.045 160.546 161.352 161.351C160.659 162.156 160.314 163.203 160.392 164.263L162.841 197.141C162.92 198.201 163.417 199.186 164.222 199.879C165.026 200.573 166.073 200.918 167.132 200.839C168.191 200.76 169.176 200.263 169.869 199.458C170.562 198.653 170.907 197.605 170.828 196.545L168.378 163.667C168.298 162.608 167.801 161.623 166.997 160.93C166.192 160.237 165.146 159.891 164.087 159.969Z" fill="#535461"/>
<path d="M229.581 193.654L234.031 193.322C238.781 192.968 243.197 190.74 246.306 187.128C249.414 183.516 250.962 178.816 250.608 174.063C250.432 171.709 249.795 169.413 248.733 167.305C247.671 165.198 246.204 163.321 244.417 161.78C240.807 158.67 236.11 157.121 231.36 157.476L226.91 157.808L229.581 193.654Z" fill="#BDBDBD"/>
<path d="M226.609 155.305C225.55 155.385 224.567 155.882 223.874 156.687C223.181 157.492 222.836 158.539 222.914 159.598L225.363 192.477C225.443 193.536 225.94 194.52 226.744 195.213C227.549 195.906 228.596 196.251 229.654 196.172C230.713 196.093 231.697 195.596 232.39 194.792C233.083 193.987 233.428 192.94 233.35 191.881L230.9 159.002C230.82 157.943 230.323 156.959 229.519 156.266C228.714 155.572 227.668 155.227 226.609 155.305V155.305Z" fill="#535461"/>
</g>
<defs>
<linearGradient id="paint0_linear" x1="311.741" y1="214.726" x2="364.134" y2="214.726" gradientUnits="userSpaceOnUse">
<stop stop-color="white"/>
<stop offset="1" stop-color="white" stop-opacity="0.3"/>
</linearGradient>
<linearGradient id="paint1_linear" x1="33350.9" y1="33136" x2="37899.2" y2="33136" gradientUnits="userSpaceOnUse">
<stop stop-color="white"/>
<stop offset="1" stop-color="white" stop-opacity="0.3"/>
</linearGradient>
<clipPath id="clip0">
<rect width="515" height="494" fill="white"/>
</clipPath>
</defs>
</svg>
